<?xml version="1.0" encoding="UTF-8"?> <svg xmlns="http://www.w3.org/2000/svg" width="200" height="52" viewBox="0 0 200 52" fill="none"><rect width="200" height="52" fill="white"></rect><path d="M79.6417 43.4672H74.2695L86.8335 14.7253H91.464L104.029 43.4672H98.4079L89.1481 22.403L79.6417 43.4672ZM82.2869 34.3696H96.5507L97.4146 39.0181L81.1296 38.7819L82.2869 34.3696Z" fill="black"></path><path d="M106.02 51.0923V23.3741H111.144V26.7602H111.376C111.604 26.2177 111.933 25.6665 112.364 25.1065C112.803 24.5378 113.373 24.0653 114.072 23.6891C114.78 23.3041 115.658 23.1117 116.707 23.1117C118.074 23.1117 119.334 23.4966 120.489 24.2666C121.644 25.0278 122.567 26.1783 123.259 27.7182C123.95 29.2494 124.296 31.1699 124.296 33.4797C124.296 35.7283 123.958 37.6269 123.283 39.1756C122.616 40.7155 121.705 41.8835 120.55 42.6797C119.404 43.4672 118.118 43.8609 116.695 43.8609C115.687 43.8609 114.828 43.6815 114.121 43.3228C113.421 42.9641 112.848 42.5135 112.401 41.971C111.953 41.4198 111.612 40.8642 111.376 40.3043H111.217V51.0923H106.02ZM111.107 33.4535C111.107 34.6521 111.262 35.6977 111.571 36.5901C111.88 37.4826 112.327 38.1781 112.913 38.6769C113.499 39.1668 114.21 39.4118 115.048 39.4118C115.894 39.4118 116.61 39.1625 117.195 38.6637C117.781 38.1563 118.224 37.4563 118.525 36.5639C118.834 35.6627 118.989 34.6259 118.989 33.4535C118.989 32.2898 118.838 31.2661 118.537 30.3824C118.236 29.4987 117.793 28.8075 117.208 28.3088C116.622 27.8101 115.902 27.5607 115.048 27.5607C114.202 27.5607 113.486 27.8013 112.901 28.2826C112.323 28.7638 111.88 29.4462 111.571 30.3299C111.262 31.2136 111.107 32.2548 111.107 33.4535Z" fill="black"></path><path d="M127.316 43.1391V22.9804H132.513V43.1391H127.316ZM129.926 20.3818C129.154 20.3818 128.491 20.1062 127.938 19.555C127.393 18.9951 127.12 18.3257 127.12 17.547C127.12 16.7771 127.393 16.1165 127.938 15.5653C128.491 15.0053 129.154 14.7253 129.926 14.7253C130.699 14.7253 131.358 15.0053 131.903 15.5653C132.456 16.1165 132.733 16.7771 132.733 17.547C132.733 18.3257 132.456 18.9951 131.903 19.555C131.358 20.1062 130.699 20.3818 129.926 20.3818Z" fill="black"></path><path d="M144.43 43.5328C142.51 43.5328 140.859 43.0953 139.477 42.2204C138.102 41.3367 137.045 40.1118 136.305 38.5456C135.572 36.9795 135.206 35.1771 135.206 33.1385C135.206 31.0736 135.577 29.2625 136.317 27.7051C137.065 26.139 138.126 24.9184 139.501 24.0435C140.876 23.1598 142.51 22.7179 144.405 22.7179C146.04 22.7179 147.472 23.0373 148.7 23.676C149.928 24.3147 150.9 25.2115 151.616 26.3664C152.332 27.5214 152.726 28.8775 152.799 30.4349H147.895C147.756 29.4287 147.39 28.6194 146.797 28.007C146.211 27.3857 145.442 27.0751 144.491 27.0751C143.686 27.0751 142.982 27.3114 142.38 27.7838C141.786 28.2476 141.323 28.9256 140.989 29.8181C140.656 30.7105 140.489 31.7911 140.489 33.0597C140.489 34.3459 140.652 35.4396 140.977 36.3408C141.311 37.242 141.778 37.9288 142.38 38.4013C142.982 38.8737 143.686 39.11 144.491 39.11C145.085 39.11 145.617 38.9787 146.089 38.7162C146.569 38.4538 146.963 38.0732 147.273 37.5744C147.59 37.067 147.797 36.4589 147.895 35.7502H152.799C152.718 37.2901 152.328 38.6462 151.628 39.8187C150.937 40.9823 149.981 41.8923 148.761 42.5485C147.541 43.2047 146.097 43.5328 144.43 43.5328Z" fill="black"></path><path d="M160.522 43.5197C159.327 43.5197 158.261 43.2966 157.326 42.8503C156.391 42.3954 155.65 41.726 155.105 40.8423C154.569 39.9499 154.3 38.8387 154.3 37.5088C154.3 36.3889 154.491 35.4483 154.874 34.6871C155.256 33.9259 155.776 33.3135 156.435 32.8498C157.094 32.386 157.842 32.0361 158.68 31.7998C159.526 31.5636 160.413 31.3974 161.34 31.3011C162.43 31.1786 163.308 31.0649 163.975 30.9599C164.642 30.8461 165.126 30.6799 165.427 30.4612C165.728 30.2424 165.878 29.9187 165.878 29.49V29.4112C165.878 28.58 165.634 27.937 165.146 27.482C164.666 27.027 163.983 26.7995 163.097 26.7995C162.161 26.7995 161.417 27.0226 160.864 27.4689C160.311 27.9063 159.945 28.4575 159.766 29.1225L154.959 28.7025C155.203 27.4776 155.683 26.4189 156.399 25.5265C157.114 24.6253 158.038 23.9341 159.168 23.4529C160.307 22.9629 161.624 22.7179 163.121 22.7179C164.162 22.7179 165.158 22.8492 166.11 23.1117C167.07 23.3741 167.92 23.781 168.66 24.3322C169.408 24.8834 169.998 25.5921 170.429 26.4583C170.86 27.3157 171.076 28.3438 171.076 29.5425V43.1391H166.147V40.3436H166C165.699 40.9736 165.297 41.5292 164.792 42.0104C164.288 42.4829 163.682 42.8547 162.975 43.1259C162.267 43.3884 161.45 43.5197 160.522 43.5197ZM162.011 39.6612C162.775 39.6612 163.45 39.4993 164.036 39.1756C164.622 38.8431 165.081 38.3969 165.415 37.8369C165.748 37.277 165.915 36.6426 165.915 35.9339V33.7947C165.752 33.9084 165.529 34.0134 165.244 34.1097C164.967 34.1972 164.654 34.2803 164.304 34.359C163.955 34.429 163.605 34.4946 163.255 34.5559C162.905 34.6084 162.588 34.6565 162.304 34.7003C161.694 34.7965 161.161 34.9496 160.705 35.1596C160.25 35.3696 159.896 35.6539 159.644 36.0127C159.392 36.3626 159.266 36.8001 159.266 37.3251C159.266 38.0863 159.522 38.6681 160.034 39.0706C160.555 39.4643 161.214 39.6612 162.011 39.6612Z" fill="black"></path><path d="M45.3809 44.4332H63.1522C65.2445 44.4332 66.5645 42.1826 65.5433 40.3564L56.3877 23.9837L45.3809 44.4332Z" fill="#F06331"></path><path d="M54.4643 19.6866L45.0519 3.13421C44.5255 2.20851 43.1904 2.21115 42.6677 3.13892L37.7344 11.8949L48.344 30.7703L54.4643 19.6866Z" fill="#2AC573"></path><path d="M41.7117 44.4329L46.6101 35.544L35.7959 15.9004L22.1534 40.3587C21.1348 42.1848 22.455 44.4329 24.546 44.4329H41.7117Z" fill="#FFD337"></path><circle cx="176.755" cy="39.5403" r="3.08216" stroke="black" stroke-width="0.68491"></circle><path d="M176.105 39.6926V37.7002H176.891C177.041 37.7002 177.17 37.7271 177.276 37.7809C177.383 37.8341 177.465 37.9097 177.52 38.0076C177.577 38.1049 177.605 38.2194 177.605 38.351C177.605 38.4833 177.576 38.5972 177.519 38.6925C177.462 38.7872 177.38 38.8598 177.271 38.9104C177.164 38.961 177.033 38.9863 176.88 38.9863H176.354V38.6477H176.812C176.893 38.6477 176.959 38.6367 177.013 38.6147C177.066 38.5926 177.105 38.5595 177.131 38.5154C177.158 38.4713 177.171 38.4165 177.171 38.351C177.171 38.2849 177.158 38.2291 177.131 38.1837C177.105 38.1383 177.065 38.1039 177.012 38.0806C176.958 38.0566 176.891 38.0446 176.81 38.0446H176.526V39.6926H176.105ZM177.181 38.7859L177.676 39.6926H177.211L176.726 38.7859H177.181Z" fill="black"></path></svg> 