<?xml version="1.0" encoding="UTF-8"?> <svg xmlns="http://www.w3.org/2000/svg" width="200" height="40" viewBox="0 0 200 40" fill="none"><g clip-path="url(#clip0_927_529)"><rect width="200" height="40" fill="white"></rect><path d="M85.8502 14.5273C85.8502 15.3504 85.9392 16.0178 86.0949 16.5072C86.2729 16.9967 86.4953 17.5306 86.8068 18.109C86.918 18.287 86.9625 18.465 86.9625 18.6207C86.9625 18.8432 86.829 19.0656 86.5398 19.2881L85.1383 20.2225C84.938 20.356 84.7378 20.4227 84.5598 20.4227C84.3374 20.4227 84.1149 20.3115 83.8924 20.1112C83.581 19.7775 83.314 19.4216 83.0915 19.0656C82.8691 18.6874 82.6466 18.2647 82.4019 17.7531C80.6666 19.7998 78.4864 20.8231 75.8613 20.8231C73.9925 20.8231 72.502 20.2892 71.4119 19.2214C70.3218 18.1535 69.7656 16.7297 69.7656 14.9499C69.7656 13.059 70.433 11.5239 71.7901 10.3671C73.1472 9.21024 74.9492 8.63181 77.2406 8.63181C77.997 8.63181 78.7756 8.69856 79.5988 8.80979C80.4219 8.92102 81.2673 9.099 82.1572 9.29922V7.6752C82.1572 5.98443 81.8012 4.80534 81.1116 4.11568C80.3997 3.42603 79.1983 3.09233 77.4853 3.09233C76.7067 3.09233 75.9058 3.18131 75.0826 3.38154C74.2595 3.58176 73.4586 3.82647 72.68 4.13793C72.324 4.29366 72.0571 4.38265 71.9013 4.42714C71.7456 4.47164 71.6344 4.49388 71.5454 4.49388C71.2339 4.49388 71.0782 4.27141 71.0782 3.80423V2.71413C71.0782 2.35818 71.1227 2.09121 71.2339 1.93548C71.3452 1.77976 71.5454 1.62403 71.8568 1.4683C72.6355 1.06785 73.5699 0.734149 74.66 0.467186C75.7501 0.177976 76.9069 0.0444939 78.1305 0.0444939C80.7779 0.0444939 82.7133 0.645161 83.9592 1.8465C85.1828 3.04783 85.8057 4.87208 85.8057 7.31924V14.5273H85.8502ZM76.8179 17.9088C77.5521 17.9088 78.3085 17.7753 79.1093 17.5083C79.9102 17.2414 80.6221 16.7519 81.2228 16.0845C81.5788 15.6618 81.8457 15.1947 81.9792 14.6607C82.1127 14.1268 82.2017 13.4816 82.2017 12.7253V11.7909C81.5565 11.6352 80.8668 11.5017 80.1549 11.4127C79.443 11.3237 78.7534 11.2792 78.0637 11.2792C76.5732 11.2792 75.4831 11.5684 74.7489 12.1691C74.0148 12.7697 73.6588 13.6151 73.6588 14.7275C73.6588 15.7731 73.9258 16.5517 74.482 17.0857C75.0159 17.6418 75.7945 17.9088 76.8179 17.9088ZM94.6822 20.3115C94.2818 20.3115 94.0148 20.2447 93.8368 20.089C93.6588 19.9555 93.5031 19.6441 93.3696 19.2214L88.1416 2.02447C88.0081 1.57953 87.9414 1.29032 87.9414 1.13459C87.9414 0.778643 88.1194 0.578421 88.4753 0.578421H90.6555C91.0782 0.578421 91.3674 0.645161 91.5231 0.80089C91.7011 0.934372 91.8346 1.24583 91.9681 1.66852L95.7056 16.396L99.1761 1.66852C99.2873 1.22358 99.4208 0.934372 99.5988 0.80089C99.7767 0.667408 100.088 0.578421 100.489 0.578421H102.268C102.691 0.578421 102.98 0.645161 103.158 0.80089C103.336 0.934372 103.492 1.24583 103.581 1.66852L107.096 16.574L110.945 1.66852C111.078 1.22358 111.234 0.934372 111.39 0.80089C111.568 0.667408 111.857 0.578421 112.257 0.578421H114.326C114.682 0.578421 114.882 0.756396 114.882 1.13459C114.882 1.24583 114.86 1.35706 114.838 1.49055C114.816 1.62403 114.771 1.802 114.682 2.04672L109.321 19.2436C109.187 19.6885 109.031 19.9778 108.854 20.1112C108.676 20.2447 108.386 20.3337 108.008 20.3337H106.095C105.672 20.3337 105.383 20.267 105.205 20.1112C105.027 19.9555 104.871 19.6663 104.782 19.2214L101.334 4.87208L97.908 19.1991C97.7968 19.6441 97.6633 19.9333 97.4853 20.089C97.3073 20.2447 96.9959 20.3115 96.5954 20.3115H94.6822ZM123.27 20.9121C122.113 20.9121 120.956 20.7786 119.843 20.5117C118.731 20.2447 117.864 19.9555 117.285 19.6218C116.929 19.4216 116.684 19.1991 116.595 18.9989C116.506 18.7987 116.462 18.5762 116.462 18.376V17.2414C116.462 16.7742 116.64 16.5517 116.974 16.5517C117.107 16.5517 117.241 16.574 117.374 16.6185C117.508 16.663 117.708 16.7519 117.93 16.8409C118.687 17.1746 119.51 17.4416 120.377 17.6196C121.267 17.7976 122.135 17.8865 123.025 17.8865C124.426 17.8865 125.516 17.6418 126.273 17.1524C127.029 16.663 127.43 15.9511 127.43 15.0389C127.43 14.416 127.229 13.9043 126.829 13.4816C126.429 13.059 125.672 12.6808 124.582 12.3248L121.356 11.3237C119.732 10.812 118.531 10.0556 117.797 9.05451C117.063 8.07564 116.684 6.98554 116.684 5.8287C116.684 4.89433 116.885 4.07119 117.285 3.35929C117.686 2.64739 118.219 2.02447 118.887 1.53504C119.554 1.02336 120.311 0.645161 121.201 0.378198C122.09 0.111235 123.025 0 124.004 0C124.493 0 125.005 0.0222469 125.494 0.0889878C126.006 0.155729 126.473 0.244716 126.94 0.333704C127.385 0.444939 127.808 0.556174 128.208 0.689655C128.609 0.823137 128.92 0.956619 129.143 1.0901C129.454 1.26808 129.677 1.44605 129.81 1.64627C129.944 1.82425 130.01 2.06897 130.01 2.38042V3.42603C130.01 3.89321 129.832 4.13793 129.499 4.13793C129.321 4.13793 129.031 4.04894 128.653 3.87097C127.385 3.29255 125.961 3.00334 124.382 3.00334C123.114 3.00334 122.113 3.20356 121.423 3.62625C120.733 4.04894 120.377 4.6941 120.377 5.60623C120.377 6.22914 120.6 6.76307 121.045 7.18576C121.49 7.60846 122.313 8.03115 123.492 8.40935L126.651 9.41046C128.253 9.92214 129.41 10.634 130.099 11.5462C130.789 12.4583 131.123 13.5039 131.123 14.6607C131.123 15.6174 130.922 16.485 130.544 17.2414C130.144 17.9978 129.61 18.6652 128.92 19.1991C128.231 19.7553 127.407 20.1557 126.451 20.4449C125.45 20.7564 124.404 20.9121 123.27 20.9121Z" fill="#252F3E"></path><path d="M127.474 31.7242C120.155 37.1302 109.521 40 100.378 40C87.5633 40 76.0171 35.2614 67.2963 27.386C66.6067 26.7631 67.2296 25.9177 68.0527 26.4072C77.4854 31.8799 89.1206 35.1947 101.156 35.1947C109.276 35.1947 118.197 33.5039 126.406 30.0334C127.63 29.4772 128.676 30.8343 127.474 31.7242Z" fill="#FF9900"></path><path d="M130.524 28.2535C129.59 27.0522 124.34 27.6751 121.959 27.9643C121.247 28.0533 121.136 27.4304 121.781 26.9632C125.964 24.0266 132.838 24.872 133.639 25.8509C134.44 26.852 133.416 33.7263 129.501 37.0188C128.9 37.5305 128.322 37.2635 128.589 36.5961C129.479 34.3937 131.459 29.4326 130.524 28.2535Z" fill="#FF9900"></path></g><defs><clipPath id="clip0_927_529"><rect width="200" height="40" fill="white"></rect></clipPath></defs></svg> 