<?xml version="1.0" encoding="UTF-8"?> <svg xmlns="http://www.w3.org/2000/svg" width="200" height="40" viewBox="0 0 200 40" fill="none"><rect width="200" height="40" fill="white"></rect><path d="M89.2291 11.4251L88.4645 13.5664H88.4228C88.2883 13.0622 88.0601 12.353 87.7048 11.4484L83.6094 1.1938H79.6172V17.5002H82.2535V7.47481C82.2535 6.85784 82.238 6.10856 82.2121 5.25312C82.2017 4.81898 82.15 4.47437 82.1367 4.21109H82.1966C82.2973 4.68198 82.4218 5.14746 82.5698 5.60571L87.4717 17.5H89.3148L94.1831 5.49557C94.289 5.22342 94.4109 4.68933 94.5173 4.21109H94.5742C94.5144 5.3985 94.4577 6.48176 94.4523 7.13907V17.5H97.2598V1.1938H93.4234L89.2291 11.4251Z" fill="#706D6E"></path><path d="M99.9102 17.5H102.663V5.81556H99.9102V17.5Z" fill="#706D6E"></path><path d="M101.314 0.849355C100.86 0.849355 100.464 1.00227 100.142 1.3081C99.8157 1.61393 99.6523 2.0002 99.6523 2.45252C99.6523 2.90107 99.8157 3.27826 100.137 3.57877C100.458 3.87573 100.855 4.02466 101.314 4.02466C101.775 4.02466 102.172 3.87573 102.499 3.57877C102.82 3.27826 102.986 2.90107 102.986 2.45252C102.986 2.01461 102.825 1.63476 102.507 1.31985C102.19 1.00737 101.794 0.849355 101.314 0.849355Z" fill="#706D6E"></path><path d="M112.395 5.69659C111.889 5.58972 111.373 5.53499 110.855 5.53326C109.598 5.53326 108.473 5.80407 107.514 6.33839C106.557 6.87226 105.816 7.63417 105.31 8.60374C104.807 9.57175 104.551 10.7009 104.551 11.9645C104.551 13.0675 104.802 14.0783 105.287 14.9716C105.777 15.867 106.469 16.5673 107.345 17.0491C108.221 17.5353 109.23 17.7815 110.352 17.7815C111.659 17.7815 112.768 17.5209 113.665 17.0076L113.707 16.9868V14.4659L113.59 14.5501C113.177 14.848 112.723 15.0842 112.242 15.2515C111.757 15.4226 111.314 15.5055 110.925 15.5055C109.844 15.5055 108.976 15.17 108.351 14.5034C107.724 13.8385 107.405 12.9015 107.405 11.7261C107.405 10.5389 107.732 9.58084 108.395 8.87167C109.046 8.16583 109.914 7.80925 110.969 7.80925C111.874 7.80925 112.755 8.11375 113.59 8.72053L113.707 8.80452V6.14891L113.665 6.12808C113.351 5.953 112.921 5.80806 112.395 5.69659Z" fill="#706D6E"></path><path d="M121.453 5.61191C120.758 5.61191 120.141 5.83398 119.615 6.26945C119.149 6.65439 118.814 7.18184 118.557 7.83627H118.529V5.8158H115.781V17.5002H118.529V11.5237C118.529 10.5036 118.757 9.67169 119.213 9.04053C119.657 8.41712 120.258 8.10066 120.992 8.10066C121.238 8.10066 121.513 8.14232 121.816 8.22387C122.114 8.30299 122.329 8.3923 122.456 8.48317L122.573 8.56605V5.79364L122.531 5.77303C122.275 5.66533 121.909 5.61214 121.453 5.61214" fill="#706D6E"></path><path d="M131.107 14.5306C130.588 15.1775 129.811 15.5053 128.795 15.5053C127.786 15.5053 126.988 15.1724 126.431 14.5124C125.86 13.8476 125.575 12.9013 125.575 11.7024C125.575 10.4624 125.86 9.49286 126.431 8.81893C126.988 8.14743 127.776 7.80925 128.772 7.80925C129.736 7.80925 130.506 8.13325 131.055 8.77461C131.607 9.42017 131.89 10.3804 131.89 11.6352C131.89 12.9013 131.625 13.8791 131.107 14.5306ZM128.914 5.53082C126.993 5.53082 125.464 6.09705 124.372 7.21178C123.281 8.32207 122.727 9.86606 122.727 11.7921C122.727 13.622 123.268 15.0933 124.331 16.1664C125.394 17.2381 126.846 17.7815 128.637 17.7815C130.5 17.7815 132.007 17.2111 133.098 16.0795C134.184 14.9508 134.739 13.4268 134.739 11.5444C134.739 9.68611 134.223 8.20306 133.196 7.13909C132.175 6.0709 130.734 5.53082 128.914 5.53082Z" fill="#706D6E"></path><path d="M140.834 10.6424C139.965 10.2951 139.41 10.0046 139.182 9.7845C138.962 9.56931 138.85 9.26859 138.85 8.88608C138.85 8.54546 138.986 8.27575 139.276 8.05169C139.561 7.82986 139.957 7.71861 140.455 7.71861C140.921 7.71861 141.398 7.78975 141.868 7.93491C142.334 8.07896 142.754 8.26799 143.099 8.50645L143.211 8.58291V6.0412L143.164 6.02436C142.853 5.88563 142.427 5.76906 141.919 5.6731C141.411 5.5798 140.945 5.53304 140.548 5.53304C139.234 5.53304 138.15 5.86879 137.326 6.52876C136.491 7.19338 136.066 8.06566 136.066 9.1221C136.066 9.6717 136.159 10.1564 136.339 10.5699C136.52 10.9846 136.8 11.3515 137.173 11.6587C137.536 11.9619 138.104 12.2794 138.861 12.6037C139.496 12.8638 139.965 13.083 140.268 13.2579C140.564 13.4276 140.769 13.5987 140.888 13.766C141.002 13.932 141.062 14.1534 141.062 14.4282C141.062 15.2152 140.473 15.5973 139.265 15.5973C138.814 15.5973 138.301 15.5039 137.741 15.32C137.185 15.1361 136.66 14.8696 136.183 14.5295L136.066 14.4453V17.1244L136.108 17.145C136.505 17.3278 136.999 17.4805 137.588 17.5973C138.171 17.7217 138.703 17.7815 139.159 17.7815C140.587 17.7815 141.733 17.4431 142.563 16.7793C143.407 16.1094 143.833 15.2165 143.833 14.124C143.833 13.337 143.602 12.6617 143.151 12.1159C142.697 11.5745 141.919 11.0805 140.834 10.6424Z" fill="#706D6E"></path><path d="M153.412 14.5306C152.893 15.1775 152.116 15.5053 151.102 15.5053C150.091 15.5053 149.293 15.1724 148.733 14.5124C148.165 13.8476 147.88 12.9013 147.88 11.7024C147.88 10.4624 148.165 9.49286 148.733 8.81893C149.293 8.14743 150.081 7.80925 151.076 7.80925C152.046 7.80925 152.81 8.13325 153.36 8.77461C153.915 9.42017 154.194 10.3804 154.194 11.6352C154.194 12.9013 153.93 13.8791 153.412 14.5306ZM151.224 5.53082C149.298 5.53082 147.768 6.09705 146.677 7.21178C145.586 8.32207 145.031 9.86606 145.031 11.7921C145.031 13.622 145.573 15.0933 146.636 16.1664C147.699 17.2381 149.15 17.7815 150.939 17.7815C152.81 17.7815 154.311 17.2111 155.402 16.0795C156.494 14.9508 157.043 13.4268 157.043 11.5444C157.043 9.68611 156.528 8.20306 155.501 7.13909C154.48 6.0709 153.038 5.53082 151.224 5.53082Z" fill="#706D6E"></path><path d="M171.7 8.05546V5.81582H168.916V2.32915L168.823 2.35796L166.208 3.15732L166.155 3.17306V5.81582H162.031V4.34319C162.031 3.65773 162.187 3.13406 162.485 2.78413C162.788 2.43929 163.216 2.26444 163.763 2.26444C164.154 2.26444 164.564 2.3553 164.971 2.53924L165.072 2.58356V0.222917L165.026 0.207403C164.645 0.0677851 164.126 -3.01445e-05 163.478 -3.01445e-05C162.667 -3.01445e-05 161.93 0.175046 161.287 0.526306C160.642 0.876458 160.134 1.3751 159.779 2.01424C159.426 2.64805 159.248 3.38293 159.248 4.19714V5.81582H157.309V8.05546H159.248V17.5H162.031V8.05546H166.156V14.0577C166.156 16.5269 167.322 17.7815 169.619 17.7815C169.997 17.7815 170.399 17.7374 170.803 17.6518C171.216 17.5621 171.498 17.4741 171.662 17.3782L171.7 17.3575V15.0933L171.589 15.17C171.439 15.2681 171.247 15.3524 171.029 15.412C170.803 15.4754 170.622 15.5053 170.477 15.5053C169.938 15.5053 169.541 15.3615 169.295 15.0765C169.041 14.7861 168.916 14.282 168.916 13.5728V8.05546H171.7Z" fill="#706D6E"></path><path d="M47.3546 19.6016H29V1.24296H47.3546V19.6016Z" fill="#F1511B"></path><path d="M67.6201 19.6016H49.2617V1.24296H67.6201V19.6016Z" fill="#80CC28"></path><path d="M47.3546 39.8789H29V21.5168H47.3546V39.8789Z" fill="#00ADEF"></path><path d="M67.6201 39.8789H49.2617V21.5168H67.6201V39.8789Z" fill="#FBBC09"></path><path d="M88.7794 33.3184L86.4979 26.763C86.4296 26.5496 86.3569 26.2056 86.2811 25.732H86.2348C86.1654 26.1675 86.0892 26.5108 86.005 26.763L83.7478 33.3184H88.7794ZM93.9701 39.7246H90.9789L89.5007 35.5414H83.0371L81.6166 39.7246H78.6367L84.7912 23.2907H87.8619L93.9701 39.7246Z" fill="#706D6E"></path><path d="M104.124 29.1011L97.7876 37.6505H104.101V39.7249H94.0625V38.7276L100.537 30.0642H94.681V27.9897H104.124L104.124 29.1011Z" fill="#706D6E"></path><path d="M116.127 39.7248H113.468V37.8681H113.422C112.65 39.2893 111.451 40 109.824 40C107.051 40 105.664 38.3346 105.664 35.0035V27.99H108.323V34.7282C108.323 36.8371 109.136 37.8913 110.764 37.8913C111.551 37.8913 112.198 37.601 112.706 37.0204C113.214 36.44 113.468 35.6796 113.468 34.7395V27.9898H116.127V39.7248Z" fill="#706D6E"></path><path d="M125.923 30.5223C125.603 30.2701 125.141 30.1444 124.538 30.1444C123.75 30.1444 123.094 30.4992 122.567 31.2104C122.039 31.9204 121.776 32.8867 121.776 34.1095V39.7246H119.117V27.9896H121.776V30.4075H121.821C122.08 29.5824 122.48 28.9388 123.019 28.4772C123.558 28.0147 124.159 27.7835 124.824 27.7835C125.305 27.7835 125.672 27.856 125.923 28.0014V30.5223Z" fill="#706D6E"></path><path d="M134.496 32.7C134.488 31.7448 134.263 31.0018 133.82 30.471C133.377 29.9402 132.766 29.6743 131.987 29.6743C131.223 29.6743 130.575 29.9535 130.044 30.5107C129.514 31.0691 129.187 31.7987 129.065 32.7002L134.496 32.7ZM137.064 34.5793H129.065C129.095 35.6639 129.429 36.5007 130.067 37.0891C130.706 37.6777 131.581 37.9713 132.697 37.9713C133.951 37.9713 135.1 37.5975 136.147 36.8486V38.9917C135.077 39.6636 133.663 40 131.907 40C130.179 40 128.826 39.4668 127.844 38.4013C126.862 37.3355 126.371 35.8358 126.371 33.9029C126.371 32.0773 126.911 30.5893 127.992 29.4396C129.074 28.2894 130.417 27.7148 132.021 27.7148C133.625 27.7148 134.867 28.2305 135.746 29.2616C136.625 30.2933 137.064 31.726 137.064 33.559V34.5793Z" fill="#706D6E"></path></svg> 