<?xml version="1.0" encoding="UTF-8"?> <svg xmlns="http://www.w3.org/2000/svg" width="200" height="40" viewBox="0 0 200 40" fill="none"><rect width="200" height="40" fill="white"></rect><path d="M90.7737 13.213V35.7816H94.9164V16.7578H99.7931C101.256 16.7578 102.713 16.9329 103.904 17.9176C104.839 18.6909 105.339 19.7981 105.339 21.2367C105.339 22.6763 104.839 23.7825 103.904 24.5558C102.54 25.6848 100.692 25.7161 99.0471 25.7161H98.318V29.2609C100.295 29.2609 102.19 29.298 104.095 28.6466C104.38 28.5493 104.728 28.4179 105.003 28.2941C106.437 27.6492 107.537 26.7201 108.302 25.5068C109.066 24.2929 109.449 22.8696 109.449 21.2367C109.449 19.5829 109.067 18.1544 108.302 16.9513C107.537 15.7483 106.437 14.8245 105.003 14.1798C103.856 13.6646 102.797 13.362 101.286 13.2478C100.899 13.2185 100.227 13.213 99.9516 13.213H90.7737ZM68.1922 18.5424C67.1762 20.3039 66.6683 22.291 66.6685 24.5035C66.6685 26.7164 67.1713 28.7036 68.177 30.4651C69.1823 32.2266 70.5716 33.6068 72.3447 34.6057C74.1174 35.6048 76.1028 36.1043 78.3008 36.1043C80.0837 36.1043 81.7166 35.782 83.1995 35.1375C84.6817 34.4931 85.9311 33.5587 86.9475 32.3343L84.3344 29.7563C82.7586 31.5396 80.8199 32.4312 78.5185 32.431C77.0257 32.431 75.6882 32.0925 74.5062 31.4156C73.3567 30.7724 72.3978 29.7956 71.7382 28.596C71.0741 27.3931 70.7422 26.0289 70.7425 24.5035C70.7425 22.9787 71.0744 21.6145 71.7382 20.4111C72.398 19.2116 73.3568 18.2349 74.5062 17.5915C75.6882 16.9149 77.0257 16.5766 78.5185 16.5766C80.8198 16.5766 82.7584 17.4574 84.3345 19.2191L86.9475 16.6733C85.9214 15.4413 84.6439 14.4816 83.2152 13.8696C81.7422 13.2252 80.1143 12.9029 78.3317 12.9028C76.1337 12.9028 74.1483 13.4023 72.3756 14.4014C70.6028 15.4004 69.2083 16.7808 68.1922 18.5424ZM44.3015 18.5424C43.2851 20.3039 42.777 22.291 42.7773 24.5035C42.7773 26.7164 43.2854 28.7036 44.3015 30.4651C45.3171 32.2266 46.7166 33.6068 48.5001 34.6057C50.2835 35.6048 52.2844 36.1043 54.5029 36.1043C56.0632 36.1068 57.6151 35.857 59.1064 35.3632C60.5992 34.8691 61.9054 34.1601 63.025 33.2361V24.2461H55.758V27.8023H59.1995V31.2707C57.9138 32.0441 56.4209 32.4308 54.721 32.431C53.2069 32.431 51.8538 32.0872 50.6617 31.3997C49.5047 30.7482 48.5364 29.7672 47.8628 28.5638C47.1885 27.3608 46.8516 26.0074 46.8519 24.5035C46.8519 22.9568 47.1888 21.5819 47.8628 20.3788C48.5323 19.1801 49.5023 18.2085 50.6617 17.5756C51.8543 16.9099 53.2177 16.5769 54.7519 16.5766C57.0947 16.5766 59.0956 17.4359 60.7546 19.1546L63.305 16.5766C62.289 15.3736 61.0346 14.4606 59.5417 13.8373C58.0489 13.2148 56.39 12.9033 54.5651 12.9028C52.3261 12.9028 50.3097 13.4023 48.5158 14.4014C46.7223 15.4004 45.3175 16.7808 44.3015 18.5424Z" fill="#415055"></path><path d="M127.748 0.627991V8.99453H114.512V40H143.762V31.7037H156.998V0.627991H127.748ZM153.077 27.6259H139.84V35.9222H118.433V13.0723H131.67V4.70586H153.077V27.6259Z" fill="#FAB900"></path></svg> 