<svg xmlns="http://www.w3.org/2000/svg" width="120" height="24" viewBox="0 0 120 24" fill="none"><g clip-path="url(#clip0_10852_565)"><path fill-rule="evenodd" clip-rule="evenodd" d="M115.415 8.55883H119.955C119.99 8.55883 120.016 8.52827 120.016 8.49065V4.0002C120.016 2.90227 119.652 2.00889 118.919 1.38587C118.244 0.812216 117.234 0.466617 115.879 0.398438C115.844 0.398438 115.818 0.426647 115.818 0.461912V2.15465C115.818 2.18756 115.844 2.21577 115.874 2.21813C117.06 2.30041 117.965 2.68598 117.965 4.02371H115.415C115.38 4.02371 115.354 4.05427 115.354 4.09189V8.49065C115.354 8.52591 115.382 8.55648 115.415 8.55648V8.55883ZM17.2352 12.1935H11.732C11.6453 12.1935 11.5914 12.2711 11.5914 12.3463V15.311C11.5914 15.405 11.6617 15.4638 11.732 15.4638H13.6867V17.8501C13.6867 19.6251 13.2555 20.5796 11.732 20.5796C10.4594 20.5796 9.55703 19.8061 9.55703 17.401V10.4679C9.55703 8.16386 10.2414 7.08474 11.7555 7.08474C13.1219 7.08474 13.6773 7.9264 13.6773 9.49924V10.3926C13.6773 10.4867 13.7477 10.5454 13.8203 10.5454H17.2047C17.2914 10.5454 17.3453 10.4702 17.3453 10.3926V9.34642C17.3758 5.6177 15.3977 3.6452 11.8188 3.6452C8.23984 3.6452 5.90781 5.77992 5.90781 10.2657V17.6831C5.90781 22.1007 8.62422 24.0238 11.6383 24.0238C15.0133 24.0238 17.3688 22.6908 17.3688 17.7513V12.3369C17.3688 12.2993 17.357 12.2617 17.3336 12.2335C17.3078 12.2053 17.275 12.1865 17.2375 12.1841V12.1912H17.2352V12.1935ZM27.7703 20.0929H22.4781V4.16947C22.4781 4.07543 22.4078 4.01666 22.3375 4.01666H19.007C18.9203 4.01666 18.8664 4.09189 18.8664 4.16947V23.5184C18.8664 23.6124 18.9367 23.6712 19.007 23.6712H27.7609C27.8477 23.6712 27.9016 23.596 27.9016 23.5184V20.2552C27.9016 20.1611 27.8312 20.1023 27.7609 20.1023H27.768V20.0953H27.7703V20.0929ZM77.5 10.315C77.5 5.85515 79.7852 3.67811 83.2773 3.67811C86.7695 3.67811 89.0406 5.86221 89.0242 10.315V17.3846C89.0242 21.9056 86.882 23.9862 83.2773 23.9862C79.6727 23.9862 77.5 21.9479 77.5 17.3846V10.315ZM83.2797 20.5961C84.7398 20.5961 85.3445 19.5263 85.3445 17.2482V10.4749C85.3445 8.19677 84.7563 7.09414 83.2797 7.09414C81.8031 7.09414 81.2148 8.24144 81.2148 10.4749V17.2482C81.2148 19.5334 81.8195 20.5961 83.2797 20.5961ZM96.2102 3.67811C92.7156 3.67811 90.4305 5.8528 90.4305 10.315V17.3846C90.4305 21.9479 92.6055 23.9862 96.2102 23.9862C99.8148 23.9862 101.957 21.9056 101.957 17.3846V10.315C101.973 5.86221 99.6578 3.67811 96.2102 3.67811ZM98.275 17.2506C98.275 19.5287 97.6703 20.5984 96.2102 20.5984C94.75 20.5984 94.1453 19.5357 94.1453 17.2506V10.4773C94.1453 8.24144 94.7336 7.09649 96.2102 7.09649C97.6867 7.09649 98.275 8.19912 98.275 10.4773V17.2506ZM65.3008 4.00961H70.293V4.02606C73.668 4.02606 76.2133 5.88572 76.2133 10.4749V17.2129C76.2133 21.7598 73.7312 23.6618 70.2531 23.6618H65.3008C65.2305 23.6618 65.1578 23.6007 65.1578 23.509V4.17653C65.1578 4.09189 65.2117 4.0049 65.3008 4.0049V4.00961ZM70.0984 20.0859C71.6055 20.0859 72.5477 19.0491 72.5477 16.6275L72.5547 16.6346V10.7288C72.5547 8.28141 71.5656 7.29633 70.0656 7.29633H68.6922V20.0859H70.0984ZM47.0945 3.6452H47.0406C43.6023 3.6452 41.7883 5.77052 41.7883 8.95615C41.7883 12.1418 43.9234 13.8181 45.6859 15.09L46.0258 15.3368L46.4359 15.6354C47.6805 16.5382 48.6391 17.2341 48.6391 18.767C48.6391 20.0506 47.8539 20.5608 46.9422 20.5866C45.9367 20.6125 45.2078 19.7803 45.2078 18.734V17.0437C45.2078 17.0178 45.2031 16.9943 45.1937 16.9708C45.1844 16.9473 45.1703 16.9261 45.1539 16.9073C45.1375 16.8885 45.1164 16.8744 45.093 16.865C45.0695 16.8556 45.0461 16.8509 45.0203 16.8485H41.8023C41.6922 16.8485 41.6148 16.9332 41.6148 17.0437V18.7599C41.6148 22.1501 43.5156 24.0285 46.8602 24.0285C50.2047 24.0285 52.2297 22.1078 52.2297 18.734C52.2297 15.3603 50.1555 13.7029 48.3484 12.3792L48.2875 12.3346C48.0906 12.1888 47.8914 12.0477 47.6922 11.9043C46.4547 11.0227 45.3039 10.2022 45.3039 8.92559C45.3039 7.64898 46.1031 7.06593 47.0313 7.06593C48.0297 7.06593 48.7352 7.83941 48.7352 8.85976V10.355C48.7352 10.4655 48.8219 10.5501 48.925 10.5501H52.143C52.2531 10.5501 52.3305 10.4655 52.3305 10.355V8.90208C52.3375 5.57068 50.3359 3.6593 47.0945 3.64284V3.6452ZM58.6562 3.6452H58.7102C61.9539 3.66165 63.9461 5.57303 63.9461 8.90443V10.3574C63.9461 10.4679 63.8688 10.5525 63.7586 10.5525H60.5383C60.5125 10.5525 60.4891 10.5478 60.4656 10.536C60.4422 10.5266 60.4211 10.5125 60.4047 10.4937C60.3883 10.4749 60.3742 10.4538 60.3648 10.4302C60.3555 10.4067 60.3508 10.3809 60.3508 10.3574V8.86211C60.3508 7.84177 59.6453 7.06828 58.6469 7.06828C57.7211 7.06828 56.9195 7.66309 56.9195 8.92794C56.9195 10.1928 58.0703 11.0227 59.3078 11.9067C59.5047 12.0477 59.7063 12.1912 59.9031 12.3369L59.9641 12.3816C61.7711 13.7052 63.8453 15.224 63.8453 18.7364C63.8453 22.2488 61.8203 24.0309 58.4758 24.0309C55.1312 24.0309 53.2305 22.1524 53.2305 18.7623V17.046C53.2305 16.9355 53.3102 16.8509 53.418 16.8509H56.6383C56.7414 16.8509 56.8258 16.9355 56.8258 17.046V18.7364C56.8258 19.7826 57.5547 20.6149 58.5602 20.589C59.4695 20.5631 60.257 20.053 60.257 18.7693C60.257 17.2341 59.2961 16.5405 58.0539 15.6378C57.9203 15.5414 57.782 15.4403 57.6438 15.3368L57.3063 15.0923C55.5438 13.8181 53.4063 12.2734 53.4063 8.95615C53.4063 5.63886 55.2203 3.6452 58.6586 3.6452H58.6562ZM114.126 10.0611V8.43893C114.126 5.96565 112.225 4.02136 110.043 4.02136H103.558C103.48 4.02136 103.417 4.08954 103.417 4.17418V23.5066C103.417 23.5913 103.48 23.6594 103.558 23.6594H106.729C106.816 23.6594 106.87 23.5842 106.87 23.5066V15.4591H108.423C109.87 15.4591 110.324 16.0374 110.324 17.5068V23.4902C110.324 23.5842 110.395 23.643 110.465 23.643H113.739C113.779 23.643 113.816 23.6265 113.845 23.596C113.873 23.5677 113.889 23.5301 113.889 23.4902V17.6173C113.889 15.6119 113.378 14.3282 112.075 13.8016C113.385 13.2233 114.123 12.0689 114.123 10.0635H114.126V10.0611ZM110.577 10.7429C110.577 11.5493 109.98 12.1959 109.241 12.1959H106.832V7.28457H109.241C109.98 7.28457 110.577 7.93111 110.577 8.7281V10.7429ZM33.4773 4.02136H36.8547C36.918 4.02136 36.9789 4.07073 36.9953 4.14831L41.3758 23.4549C41.4156 23.5654 41.3359 23.6665 41.2352 23.6665H38.0008C37.9469 23.6665 37.8742 23.6148 37.8602 23.5372L37.1688 20.0788H33.1328L32.4438 23.5372C32.4391 23.5724 32.4227 23.603 32.3969 23.6265C32.3711 23.65 32.3383 23.6641 32.3031 23.6641H29.0687C28.975 23.6641 28.9047 23.563 28.9281 23.4525L33.3391 4.14596C33.3391 4.1107 33.3578 4.07778 33.3859 4.05427C33.4117 4.03076 33.4469 4.01901 33.482 4.01901H33.4773V4.02136ZM35.1203 10.1552L33.7844 16.8344H36.4844L35.1508 10.1552L35.1344 10.2492L35.1203 10.1552ZM4.61641 4.01666H0.0765625C0.0414062 4.01666 0.015625 4.04722 0.015625 4.08249V8.48124C0.015625 8.51886 0.04375 8.54942 0.0765625 8.54942H2.62656C2.62656 9.88951 1.72422 10.2727 0.535938 10.355C0.519531 10.355 0.505469 10.3644 0.496094 10.3762C0.486719 10.3879 0.479688 10.4044 0.479688 10.4185V12.1136C0.479688 12.1488 0.507813 12.177 0.540625 12.1747C1.89297 12.1065 2.90547 11.7609 3.58047 11.1873C4.31406 10.5642 4.675 9.67086 4.67734 8.57293V4.08249C4.67734 4.04487 4.64922 4.0143 4.61641 4.0143V4.01666Z" fill="#1BE000"></path></g><defs><clipPath id="clip0_10852_565"><rect width="120" height="24" fill="white"></rect></clipPath></defs></svg>