<?xml version="1.0" encoding="UTF-8"?> <svg xmlns="http://www.w3.org/2000/svg" width="201" height="42" viewBox="0 0 201 42" fill="none"><path d="M187.945 30.4594V11.3181H191.589V26.7696H200.358V30.4594H187.945Z" fill="#092166"></path><path d="M133.601 11.3145H120.854V29.9708H133.601V26.9988H124.124V22.3858H133.601V19.1986H124.124V14.7533H133.601V11.3145Z" fill="#092166"></path><path d="M184.168 11.3145H171.42V30.1402H184.168V27.3483H174.69V22.6325H184.168V19.3743H174.69V14.83H184.168V11.3145Z" fill="#092166"></path><path d="M20.7771 30.1166C18.3591 30.1166 16.0402 29.1561 14.3304 27.4464C12.6207 25.7366 11.6602 23.4177 11.6602 20.9997C11.6602 18.5818 12.6207 16.2628 14.3304 14.5531C16.0402 12.8433 18.3591 11.8828 20.7771 11.8828L20.7771 20.9997L20.7771 30.1166Z" fill="#F0A6AE"></path><path d="M20.7776 41.4222C15.3613 41.4222 10.1669 39.2706 6.33698 35.4407C2.50708 31.6108 0.355469 26.4163 0.355469 21C0.355469 15.5837 2.50708 10.3893 6.33698 6.55939C10.1669 2.72949 15.3613 0.577881 20.7776 0.577881L20.7776 6.70615C16.9867 6.70615 13.3509 8.21211 10.6703 10.8927C7.9897 13.5734 6.48374 17.2091 6.48374 21C6.48374 24.791 7.9897 28.4267 10.6703 31.1073C13.3509 33.788 16.9867 35.2939 20.7776 35.2939L20.7776 41.4222Z" fill="#90D3CA"></path><path d="M23.561 11.8828C24.565 11.8828 25.5591 12.0806 26.4866 12.4648C27.4142 12.849 28.257 13.4121 28.9669 14.122C29.6768 14.8319 30.2399 15.6747 30.6241 16.6022C31.0083 17.5297 31.206 18.5239 31.206 19.5278L23.561 19.5278L23.561 11.8828Z" fill="#FEDB5C"></path><path d="M23.561 30.1167C24.565 30.1167 25.5591 29.919 26.4866 29.5348C27.4142 29.1506 28.257 28.5874 28.9669 27.8775C29.6768 27.1676 30.2399 26.3248 30.6241 25.3973C31.0083 24.4698 31.206 23.4756 31.206 22.4717L23.561 22.4717L23.561 30.1167Z" fill="#FEDB5C"></path><path d="M46.7716 11.896C51.5282 10.3883 55.6137 13.5522 57.0619 15.4852L55.0329 17.5876C50.1035 13.0207 47.0117 14.8058 45.3191 16.2193C44.2407 17.1199 42.1818 21.6506 45.3191 24.9284C47.9884 27.7173 53.0031 26.0449 55.0329 24.0393L57.0619 26.359C55.6848 28.1713 51.6988 31.3754 46.7716 29.6936C40.6125 27.5914 40.3184 22.0821 40.3184 20.3423C40.3152 18.82 40.8258 13.7806 46.7716 11.896Z" fill="#092166"></path><path d="M143.043 11.709C147.8 10.2013 151.885 13.3652 153.333 15.2982L151.304 17.4006C146.375 12.8337 143.283 14.6188 141.591 16.0323C140.512 16.9328 138.453 21.4636 141.591 24.7414C144.26 27.5303 149.275 25.8579 151.304 23.8523L153.333 26.172C151.956 27.9843 147.97 31.1884 143.043 29.5066C136.884 27.4044 136.59 21.895 136.59 20.1553C136.587 18.633 137.097 13.5936 143.043 11.709Z" fill="#092166"></path><path fill-rule="evenodd" clip-rule="evenodd" d="M68.891 30.1662C74.0451 30.1662 78.2234 25.988 78.2234 20.8339C78.2234 15.6797 74.0451 11.5015 68.891 11.5015C63.7368 11.5015 59.5586 15.6797 59.5586 20.8339C59.5586 25.988 63.7368 30.1662 68.891 30.1662ZM68.8936 26.8408C72.2112 26.8408 74.9007 24.1514 74.9007 20.8338C74.9007 17.5162 72.2112 14.8267 68.8936 14.8267C65.576 14.8267 62.8866 17.5162 62.8866 20.8338C62.8866 24.1514 65.576 26.8408 68.8936 26.8408Z" fill="#092166"></path><path d="M81.1328 11.6174V30.1978H84.4121V17.5297L94.9318 30.1978H97.2481V11.3145H93.9667V23.2517C91.554 20.6866 84.0379 11.6171 84.0379 11.6171L81.1328 11.6174Z" fill="#092166"></path><path d="M101.17 11.6229V30.1979H104.449V17.6424L114.969 30.1979H117.285V11.3145H114.004V23.4681C111.591 20.8566 104.075 11.6226 104.075 11.6226L101.17 11.6229Z" fill="#092166"></path><path d="M160.268 30.1815V14.7299H155.719V11.3181H168.371V14.7299H163.68V30.1815H160.268Z" fill="#092166"></path></svg> 