<svg xmlns="http://www.w3.org/2000/svg" width="171" height="34" viewBox="0 0 171 34" fill="none"><path d="M5.75886 6.49284H11.1275L16.8708 0.722656H0V17.6423L5.75886 11.8721V6.49284Z" fill="white"></path><path d="M0.0625 22.5516H0.608733C0.62434 28.2749 5.27512 32.9348 11.0028 32.9192C16.7148 32.9035 21.3656 28.2436 21.35 22.5047C21.3188 16.7658 16.6836 12.1371 10.9716 12.1371C10.9403 12.1371 10.9403 12.1371 10.9091 12.1371V11.6055C10.9403 11.6055 10.9403 11.6055 10.9716 11.6055C16.9801 11.6055 21.865 16.5 21.865 22.5203C21.865 28.5407 16.9801 33.4352 10.9716 33.4352C4.96299 33.4509 0.0937133 28.5876 0.0625 22.5516ZM1.17057 23.2709L1.7012 23.2397C2.09137 28.3687 6.53926 32.1999 11.6739 31.8089C16.8084 31.418 20.6165 26.9614 20.2263 21.8167C19.9142 17.704 16.9645 14.3264 12.9536 13.4194L13.0785 12.8877C18.3847 14.0605 21.7245 19.3147 20.554 24.6157C19.4148 29.9324 14.1397 33.2788 8.84905 32.106C4.63525 31.1991 1.48271 27.6025 1.17057 23.2709ZM2.21622 22.5516H2.74685C2.76245 27.1021 6.44562 30.7769 10.9872 30.73C15.5287 30.7143 19.1963 27.0239 19.1494 22.4734C19.1338 18.267 15.9657 14.7486 11.7987 14.3107L11.8611 13.7791C16.668 14.2795 20.1639 18.5797 19.6645 23.4117C19.1651 28.2436 14.8732 31.7307 10.0508 31.2303C5.61847 30.7925 2.23183 27.0395 2.21622 22.5516ZM3.32429 23.1458L3.85492 23.1146C4.16705 27.0395 7.61612 29.9794 11.549 29.6666C15.4663 29.3539 18.4003 25.898 18.0882 21.9574C17.9165 19.7682 16.746 17.7979 14.92 16.5781L15.2166 16.1403C18.7437 18.4859 19.7113 23.2709 17.3547 26.805C14.9981 30.339 10.238 31.3085 6.71094 28.9473C4.7601 27.6338 3.51157 25.4914 3.32429 23.1458ZM4.68207 24.5376L5.19709 24.3812C6.22713 27.5712 9.62938 29.3382 12.8287 28.3062C16.0125 27.2741 17.7761 23.8652 16.746 20.6595C15.9501 18.1419 13.6091 16.4218 10.9716 16.4218H10.9091V15.8901C10.9403 15.8901 10.9403 15.8901 10.9716 15.8901C14.6235 15.8901 17.5732 18.8456 17.5732 22.5047C17.5732 26.1638 14.6235 29.1193 10.9716 29.1193C8.09993 29.1349 5.54044 27.2897 4.68207 24.5376Z" fill="white"></path><path d="M28.1846 6.49284H33.5533L39.3122 0.722656H22.4258V17.6423L28.1846 11.8721V6.49284Z" fill="white"></path><path d="M22.4746 22.5516H23.0052C23.0208 28.2749 27.6716 32.9348 33.3993 32.9192C39.1113 32.9035 43.7621 28.2436 43.7465 22.5047C43.7309 16.7814 39.0957 12.1371 33.3837 12.1371C33.3524 12.1371 33.3524 12.1371 33.3212 12.1371V11.6055C33.3524 11.6055 33.3524 11.6055 33.3837 11.6055C39.3922 11.6055 44.2771 16.5 44.2771 22.5203C44.2771 28.5407 39.3922 33.4352 33.3837 33.4352C27.3907 33.4509 22.5058 28.5876 22.4746 22.5516ZM23.5827 23.2709L24.1133 23.2397C24.5035 28.3687 28.9514 32.1999 34.086 31.8089C39.2205 31.418 43.0286 26.9614 42.6384 21.8167C42.3263 17.704 39.3766 14.3264 35.3657 13.4194L35.4906 12.8877C40.7968 14.0605 44.1366 19.3147 42.9661 24.6157C41.8113 29.9324 36.5518 33.2788 31.2612 32.106C27.0318 31.1991 23.926 27.6025 23.5827 23.2709ZM24.6283 22.5516H25.1746C25.1902 27.1021 28.8733 30.7769 33.4149 30.73C37.9564 30.7143 41.624 27.0239 41.5772 22.4734C41.5615 18.267 38.3934 14.7486 34.2264 14.3107L34.2888 13.7791C39.0957 14.2795 42.5916 18.5797 42.0922 23.4117C41.5928 28.228 37.3009 31.7307 32.4785 31.2303C28.0306 30.7925 24.6439 27.0395 24.6283 22.5516ZM25.7364 23.1458L26.267 23.1146C26.5792 27.0395 30.0282 29.9794 33.9611 29.6666C37.894 29.3539 40.8124 25.898 40.5003 21.9574C40.3286 19.7682 39.1581 17.7979 37.3321 16.5781L37.6287 16.1403C41.1558 18.4859 42.1234 23.2709 39.7668 26.805C37.4258 30.339 32.6501 31.3085 29.123 28.9473C27.1878 27.6338 25.9393 25.4914 25.7364 23.1458ZM27.0942 24.5376L27.6092 24.3812C28.6392 27.5712 32.0415 29.3382 35.2409 28.3062C38.4246 27.2741 40.1882 23.8652 39.1581 20.6595C38.3622 18.1419 36.0212 16.4218 33.3837 16.4218H33.3368V15.8901C33.3681 15.8901 33.3681 15.8901 33.3993 15.8901C37.0512 15.8901 40.0009 18.8456 40.0009 22.5047C40.0009 26.1638 37.0512 29.1193 33.3993 29.1193C30.512 29.1349 27.9682 27.2897 27.0942 24.5376Z" fill="white"></path><path d="M104.062 32.2169C103.327 31.48 103.041 30.4974 103.041 29.4738C103 28.4503 103.408 27.4677 104.062 26.7308C105.574 25.2569 108.026 25.2569 109.538 26.7308C110.273 27.4677 110.559 28.4503 110.559 29.4738C110.6 30.4974 110.191 31.48 109.538 32.2169C107.944 33.6499 105.533 33.6499 104.062 32.2169ZM104.634 27.1811C104.062 27.7952 103.776 28.5731 103.817 29.4329C103.776 30.2517 104.062 31.0706 104.634 31.6847C105.819 32.831 107.74 32.831 108.884 31.6847C109.456 31.0706 109.742 30.2927 109.701 29.4329C109.742 28.6141 109.456 27.7952 108.884 27.1811C107.699 26.0347 105.819 26.0347 104.634 27.1811ZM90.1286 32.2169C89.3931 31.48 89.1071 30.4974 89.1071 29.4738C89.0662 28.4503 89.4748 27.4677 90.1286 26.7308C91.6405 25.2569 94.0921 25.2569 95.604 26.7308C96.3395 27.4677 96.6255 28.4503 96.6255 29.4738C96.6664 30.4974 96.2578 31.48 95.604 32.2169C94.0513 33.6499 91.6405 33.6499 90.1286 32.2169ZM90.7007 27.1811C90.1286 27.7952 89.8426 28.5731 89.8834 29.4329C89.8426 30.2517 90.1286 31.0706 90.7007 31.6847C91.8856 32.831 93.8061 32.831 94.9911 31.6847C95.5631 31.0706 95.8492 30.2927 95.8083 29.4329C95.8492 28.6141 95.5631 27.7952 94.9911 27.1811C93.8061 26.0347 91.8856 26.0347 90.7007 27.1811ZM66.0614 32.2169C65.3667 31.48 65.0399 30.4974 65.0399 29.4329C64.999 28.4094 65.3667 27.4268 66.0614 26.6489C66.756 25.9119 67.6958 25.5025 68.7174 25.5434C69.5346 25.5025 70.3518 25.7482 71.0056 26.2804C71.6594 26.7717 72.0271 27.5086 72.1906 28.2865H71.4142C71.2916 27.7133 70.9647 27.1402 70.4744 26.8126C69.9841 26.4032 69.3303 26.2395 68.7582 26.2804C67.9819 26.2395 67.2055 26.567 66.7152 27.1402C66.184 27.7543 65.8979 28.5731 65.9388 29.392C65.8979 30.2108 66.184 31.0296 66.7152 31.6437C67.2055 32.2169 68.0227 32.5445 68.7582 32.5035C69.3711 32.5035 69.9841 32.3397 70.4744 31.9713C70.9647 31.6028 71.2507 31.0706 71.4142 30.4974H72.1906C72.068 31.2753 71.6185 32.0122 71.0056 32.5035C70.3518 32.9948 69.5754 33.2814 68.7174 33.2405C67.6958 33.3223 66.756 32.9539 66.0614 32.2169ZM130.254 32.6263C129.805 32.176 129.519 31.6028 129.519 30.9477H130.254C130.254 31.439 130.459 31.8894 130.867 32.2169C131.317 32.5445 131.766 32.6673 132.256 32.6673C132.747 32.7082 133.278 32.5445 133.687 32.2988C134.054 32.0941 134.218 31.6847 134.177 31.2753C134.177 30.9887 134.095 30.743 133.973 30.4974C133.85 30.3336 133.564 30.1289 133.319 30.047C133.033 29.9242 132.747 29.9242 132.502 29.8423C132.175 29.7604 131.889 29.7195 131.562 29.6785C131.276 29.5967 130.99 29.5557 130.704 29.392C130.459 29.2691 130.213 29.0644 130.05 28.8188C129.927 28.4912 129.805 28.1637 129.846 27.7952C129.846 27.2221 130.091 26.6898 130.54 26.3213C131.031 25.871 131.725 25.6663 132.379 25.7072C133.074 25.6663 133.727 25.871 134.259 26.4032C134.708 26.8536 134.994 27.5086 134.953 28.1228H134.218C134.218 27.6724 134.095 27.2221 133.727 26.8945C133.36 26.567 132.951 26.4032 132.42 26.4032C131.97 26.3623 131.48 26.526 131.072 26.7717C130.745 26.9764 130.581 27.3858 130.581 27.7952C130.581 28.0409 130.663 28.2865 130.826 28.5322C130.949 28.6959 131.235 28.8597 131.48 28.9825C131.766 29.1054 132.052 29.1054 132.297 29.1872C132.624 29.2691 132.91 29.3101 133.237 29.392C133.523 29.4738 133.809 29.5557 134.054 29.7195C134.3 29.8423 134.545 30.088 134.708 30.3336C134.831 30.6611 134.953 31.0296 134.953 31.3571C134.953 31.9713 134.708 32.5445 134.177 32.9129C133.605 33.3633 132.869 33.527 132.175 33.4861C131.562 33.3223 130.826 33.1176 130.254 32.6263ZM112.602 32.2169C111.908 31.48 111.581 30.4974 111.581 29.4329C111.54 28.4094 111.908 27.4268 112.602 26.6489C113.297 25.9119 114.237 25.5025 115.258 25.5434C116.035 25.5025 116.893 25.7482 117.506 26.2804C118.119 26.7717 118.527 27.4268 118.691 28.2046H117.914C117.792 27.6315 117.424 27.1811 116.934 26.8126C116.443 26.4442 115.83 26.3213 115.258 26.3213C114.482 26.2804 113.706 26.6079 113.215 27.1811C112.684 27.7952 112.398 28.6141 112.439 29.4329C112.398 30.2517 112.684 31.0706 113.215 31.7256C113.706 32.2988 114.523 32.6263 115.258 32.5854C116.688 32.6673 117.955 31.5619 118.037 30.047C118.037 29.9651 118.037 29.9242 118.037 29.9242H115.544V29.1872H118.731V33.1586H117.996V31.7666C117.751 32.2579 117.342 32.6263 116.852 32.9129C115.463 33.6089 113.746 33.3223 112.602 32.2169ZM123.553 33.1586V25.7482H128.497V26.4851H124.289V29.0235H128.252V29.7604H124.289V32.4626H128.497V33.1995L123.553 33.1586ZM120.693 33.1586V25.7482H121.469V33.1586H120.693ZM98.2191 33.1586V25.7482H98.9955V32.4216H102.673V33.1586H98.2191ZM86.6963 33.1586L82.4059 27.0173V33.1586H81.6295V25.7482H82.4059L86.6963 31.9303V25.7482H87.4726V33.1586H86.6963ZM78.8101 33.1586V29.7604H74.5196V33.1586H73.7433V25.7482H74.5196V29.0644H78.8101V25.7482H79.5864V33.1586H78.8101ZM58.9515 33.1586V25.7482H63.8957V26.4851H59.687V29.0235H63.6506V29.7604H59.687V32.4626H63.8957V33.1995L58.9515 33.1586ZM54.6611 33.1586V26.4851H52.332V25.7482H57.8074V26.4851H55.4783V33.1586H54.6611Z" fill="white"></path><path d="M84.8578 21.5722L86.7374 17.0687L82.161 6.05539H83.8363L87.5138 15.1854L91.3139 6.05539H92.9484L86.4106 21.5722H84.8578ZM125.351 15.6766C124.248 14.5303 123.676 12.9745 123.717 11.3778C123.676 9.82201 124.207 8.26623 125.351 7.16081C126.373 6.01445 127.885 5.44127 129.437 5.48221C130.949 5.40033 132.42 6.01445 133.483 7.16081C134.504 8.30717 135.117 9.86295 135.076 11.3778L135.035 12.2785H126.781C126.863 12.9745 127.149 13.6296 127.639 14.039C128.13 14.4893 128.824 14.6941 129.519 14.6531C129.969 14.6531 130.459 14.5303 130.868 14.3256C131.276 14.1618 131.562 13.8343 131.685 13.4249H134.79C134.463 14.5712 133.769 15.5538 132.829 16.2498C131.807 16.9868 130.622 17.3553 129.437 17.2734C127.926 17.4371 126.414 16.823 125.351 15.6766ZM127.68 8.51188C127.231 8.96224 126.904 9.49448 126.822 10.1086H131.971C131.848 9.49448 131.562 8.96224 131.154 8.55283C130.132 7.81588 128.702 7.81588 127.68 8.51188ZM77.1759 14.1209V7.40646H75.092V6.09633H77.1759V2.98477H78.7287V6.09633H81.2621V7.40646H78.7287V14.0799C78.7287 15.2263 79.219 15.7995 80.2405 15.7995L81.2212 15.6766V17.0687C80.8126 17.1915 80.4448 17.1915 80.0771 17.1915C78.1157 17.1505 77.1759 16.127 77.1759 14.1209ZM116.158 17.1096L111.622 5.7688H114.891L117.628 13.4249L120.407 5.7688H123.594L119.059 17.1096H116.158ZM64.7133 17.1096V6.09633H66.266V17.1096H64.7133ZM70.5156 17.1096V7.40646H68.3908V6.09633H70.5156V4.2949C70.4338 3.35325 70.7607 2.45253 71.3737 1.75653C72.0274 1.18335 72.8855 0.855815 73.7436 0.896756L74.4791 0.937697V2.32971C74.3157 2.28877 74.0705 2.24783 73.8662 2.28877C73.3758 2.24783 72.8447 2.41159 72.4769 2.73913C72.1092 3.18948 71.9866 3.68078 72.0274 4.21302V6.09633H74.52V7.40646H72.0274V17.1096H70.5156ZM94.9097 17.1096V1.75653H105.125V4.66338H98.0969V7.89776H104.798V10.8046H98.0969V17.1915L94.9097 17.1096ZM52.4141 17.1096V1.75653H62.1799V3.23043H54.0077V8.55283H61.7304V10.0267H54.0077V17.0687L52.4141 17.1096ZM107.127 17.1096V5.7688H110.192V17.1096H107.127ZM107.291 3.76267C106.923 3.39419 106.759 2.94384 106.8 2.4116C106.8 1.9203 106.923 1.429 107.291 1.06052C108.026 0.323576 109.211 0.323576 109.987 1.06052C110.355 1.429 110.478 1.87936 110.478 2.4116C110.519 2.90289 110.355 3.39419 109.987 3.76267C109.252 4.45867 108.108 4.45867 107.291 3.76267ZM64.7133 3.06666C64.5498 2.90289 64.3864 2.57536 64.4273 2.28877C64.4273 2.00218 64.5498 1.71559 64.7133 1.51088C64.9176 1.30617 65.2036 1.18335 65.4896 1.18335C66.0617 1.14241 66.5929 1.63371 66.5929 2.20689C66.5929 2.24783 66.5929 2.24783 66.5929 2.28877C66.5929 2.57536 66.4703 2.86195 66.266 3.06666C66.0617 3.23042 65.7757 3.35325 65.4896 3.35325C65.1627 3.35325 64.8767 3.27136 64.7133 3.06666Z" fill="white"></path></svg>