<?xml version="1.0" encoding="UTF-8"?> <svg xmlns="http://www.w3.org/2000/svg" width="201" height="40" viewBox="0 0 201 40" fill="none"><rect width="200" height="40" transform="translate(0.03125)" fill="white"></rect><g clip-path="url(#clip0_1759_163)"><path d="M176.433 24.9093C173.584 34.0416 169.469 35.5634 165.533 35.5634H162.011V20.5841H163.174C164.78 20.5841 168.067 20.498 168.532 25.9992H170.298V13.0584H168.532C168.067 18.2553 164.728 18.1969 163.121 18.1969H162.011V3.40811H165.17C170.814 3.40811 174.336 7.50821 175.786 13.0584H177.47L177.237 1.99951H142.484V3.40811H146.318V35.5652H142.484V36.9682H177.703L177.939 24.9093H176.433ZM122.407 30.1282C122.407 31.5412 122.304 34.9405 118.368 34.9405H116.608V20.1322H117.849C120.438 20.1322 122.407 20.8903 122.407 24.7741V30.1282ZM116.608 4.03667H117.798C120.438 4.03667 121.785 5.14608 121.785 7.77095V13.526C121.785 15.7977 120.853 17.4633 118.833 17.4633H116.608V4.03667ZM129.295 19.5037C128.208 19.4031 127.068 19.3025 125.981 19.2522V18.2428C131.056 18.1409 137.944 16.5268 137.944 10.3713C137.944 3.91348 130.555 2.01083 125.221 2.01083L96.8495 2.00203L96.8533 3.40811H100.757V35.5722H96.8552L96.8577 36.9707L119.65 36.9745C126.85 36.9745 138.825 37.6678 138.825 27.6774C138.825 22.3303 134.112 19.9581 129.295 19.5037ZM68.243 3.40811H72.1789V35.5715H68.243V36.9682H92.1712V35.5722H88.2347V3.40811H92.1712V1.99951H68.243V3.40811ZM51.5479 3.36223H52.5838C54.5 3.36223 55.8861 3.74754 55.8861 5.83247V20.427L42.07 1.99951H22.0834V3.31194H23.1651C24.7711 3.31194 25.3565 4.4553 26.3409 5.71619V30.77C26.3409 33.0912 25.9107 35.6042 23.6837 35.6042H22.0605V36.9682H34.3297V35.6042H32.6716C30.186 35.6042 29.975 33.0912 29.975 30.77V10.5812L49.3203 36.9682H59.5723V9.44795C59.5723 5.6967 59.2418 3.36223 61.9339 3.36223H63.6772V1.99951H51.5479V3.36223Z" fill="#A81A1A"></path></g><defs><clipPath id="clip0_1759_163"><rect width="156" height="36" fill="white" transform="translate(22 2)"></rect></clipPath></defs></svg> 