<?xml version="1.0" encoding="UTF-8"?> <svg xmlns="http://www.w3.org/2000/svg" width="201" height="40" viewBox="0 0 201 40" fill="none"><rect width="200" height="40" transform="translate(0.513672)" fill="white"></rect><circle cx="163.594" cy="12.8602" r="1.80836" stroke="#094625" stroke-width="0.543623"></circle><path d="M163.15 13.5957V12.2778H163.67C163.769 12.2778 163.854 12.2956 163.924 12.3312C163.995 12.3664 164.049 12.4164 164.086 12.4812C164.123 12.5455 164.142 12.6212 164.142 12.7083C164.142 12.7958 164.123 12.8711 164.085 12.9342C164.048 12.9968 163.993 13.0449 163.921 13.0783C163.85 13.1118 163.764 13.1285 163.663 13.1285H163.314V12.9046H163.618C163.671 12.9046 163.715 12.8973 163.75 12.8827C163.785 12.8681 163.811 12.8462 163.829 12.8171C163.846 12.7879 163.855 12.7517 163.855 12.7083C163.855 12.6646 163.846 12.6277 163.829 12.5976C163.811 12.5676 163.785 12.5449 163.749 12.5294C163.714 12.5136 163.67 12.5056 163.616 12.5056H163.428V13.5957H163.15ZM163.861 12.996L164.189 13.5957H163.881L163.561 12.996H163.861Z" fill="#094625"></path><path fill-rule="evenodd" clip-rule="evenodd" d="M52.4953 31.3364C62.2246 31.3364 70.1118 24.5596 70.1118 16.2001C70.1118 7.84049 62.2246 1.06372 52.4953 1.06372C42.7661 1.06372 34.8789 7.84049 34.8789 16.2001C34.8789 24.5596 42.7661 31.3364 52.4953 31.3364ZM52.4944 24.5937C57.8896 24.5937 62.2634 20.8358 62.2634 16.2001C62.2634 11.5643 57.8896 7.80637 52.4944 7.80637C47.0991 7.80637 42.7253 11.5643 42.7253 16.2001C42.7253 20.8358 47.0991 24.5937 52.4944 24.5937Z" fill="#094625"></path><path d="M50.5371 20.77V13.312C52.1164 13.312 53.7613 13.947 55.092 14.6717C56.7132 15.5545 57.9883 16.9241 59.1797 18.3341C62.1323 21.8282 65.9715 26.39 65.9715 26.39C67.0396 28.3227 69.765 29.0178 70.9941 29.1238V36.2243C70.9941 36.2243 65.3899 36.9551 61.2033 31.1583C60.3768 30.0139 55.6721 24.1648 54.2098 22.4482C53.04 21.075 51.2739 20.7572 50.5371 20.77Z" fill="#094625"></path><path fill-rule="evenodd" clip-rule="evenodd" d="M84.6746 31.3366C91.9205 31.3366 97.7944 26.3119 97.7944 20.1137C97.7944 13.9155 91.9205 8.89087 84.6746 8.89087C77.4287 8.89087 71.5547 13.9155 71.5547 20.1137C71.5547 26.3119 77.4287 31.3366 84.6746 31.3366ZM84.6753 25.3367C88.0474 25.3367 90.7811 22.9983 90.7811 20.1137C90.7811 17.2291 88.0474 14.8907 84.6753 14.8907C81.3031 14.8907 78.5694 17.2291 78.5694 20.1137C78.5694 22.9983 81.3031 25.3367 84.6753 25.3367Z" fill="#094625"></path><path fill-rule="evenodd" clip-rule="evenodd" d="M99.4707 10.1033H106.411V12.9356C107.937 10.8602 112.404 7.72251 118.836 10.2149C119.871 10.6159 121.495 11.7691 122.229 12.6022C123.649 14.2151 125.503 17.0805 124.932 20.9877C124.026 27.1747 121.561 28.6837 118.745 30.3436C115.928 32.0036 109.356 31.619 106.476 27.7588C106.445 27.7588 106.463 35.2105 106.476 38.9363H99.4707V10.1033ZM111.996 25.1001C115.012 25.1001 117.457 22.8674 117.457 20.1133C117.457 17.3592 115.012 15.1266 111.996 15.1266C108.98 15.1266 106.535 17.3592 106.535 20.1133C106.535 22.8674 108.98 25.1001 111.996 25.1001Z" fill="#094625"></path><rect x="127.068" y="2.18335" width="7.35803" height="28.5951" fill="#094625"></rect><path fill-rule="evenodd" clip-rule="evenodd" d="M143.861 16.6211C144.6 15.465 146.882 13.7648 150.056 14.5781C150.056 14.5781 152.226 15.3373 152.077 16.8397C151.969 17.9387 150.497 18.5271 149.952 18.5271L144.664 18.6262C143.543 18.6473 142.412 18.7118 141.347 19.0618C139.614 19.6308 137.593 20.7545 136.862 22.72C135.632 26.0293 138.003 29.2962 138.178 29.2962C138.178 29.2962 138.18 29.2986 138.184 29.3032C138.314 29.4507 140.435 31.8661 144.754 31.2902C148.318 30.815 151.121 28.7729 152.077 27.8112C151.973 28.7729 152.077 30.6962 152.077 30.6962H158.927V16.2627C158.715 14.0221 156.522 9.45585 149.446 9.11621C149.429 9.14968 149.164 9.14358 148.725 9.13347C147.307 9.10083 144.074 9.02641 141.521 10.1069C138.847 11.239 137.301 14.9214 136.862 16.6211H143.861ZM152.059 21.6999C152.243 23.0463 151.578 25.8289 147.448 26.1881C147.421 26.2131 143.241 26.4984 143.957 23.4784C143.957 23.4784 144.305 22.002 147.968 21.9828C148.483 21.9801 148.999 21.974 149.511 21.9256C150.26 21.855 151.381 21.7517 152.059 21.6999Z" fill="#094625"></path></svg> 